#Comment line ignore any data following # character 
#Hierarchical Translation and Rotation (.htr) file 
[Header]	
#Header keywords are followed by a single value 
FileType HTR		#Single word string
DataType HTRS		#Translation followed by rotation and scale data
FileVersion 1		#integer
NumSegments 64		#integer
NumFrames 3		#integer
DataFrameRate 30		#integer, data frame rate in this file
EulerRotationOrder ZYX
CalibrationUnits mm
RotationUnits Degrees
GlobalAxisofGravity Y
BoneLengthAxis Y
ScaleFactor 1.00
[SegmentNames&Hierarchy]
#CHILD	PARENT
Pinger_Root GLOBAL
Pelvis Pinger_Root
L_Hip Pelvis
R_Hip Pelvis
Rear_Leg01 Pelvis
Spine1 Pelvis
L_Leg01 L_Hip
L_Leg02 L_Leg01
L_Leg03 L_Leg02
L_Foot L_Leg03
L_Toe1_01 L_Foot
L_Toe2_01 L_Foot
L_Toe3_01 L_Foot
planeAlignerLeft L_Foot
L_Toe1_02 L_Toe1_01
L_Toe1_03 L_Toe1_02
L_Toe2_02 L_Toe2_01
L_Toe2_03 L_Toe2_02
L_Toe3_02 L_Toe3_01
L_Toe3_03 L_Toe3_02
planeLockWeightLeft planeAlignerLeft
R_Leg01 R_Hip
R_Leg02 R_Leg01
R_Leg03 R_Leg02
R_Foot R_Leg03
planeAlignerRight R_Foot
R_Toe1_01 R_Foot
R_Toe2_01 R_Foot
R_Toe3_01 R_Foot
planeLockWeightRight planeAlignerRight
R_Toe1_02 R_Toe1_01
R_Toe1_03 R_Toe1_02
R_Toe2_02 R_Toe2_01
R_Toe2_03 R_Toe2_02
R_Toe3_02 R_Toe3_01
R_Toe3_03 R_Toe3_02
Rear_Leg02 Rear_Leg01
Rear_Leg03 Rear_Leg02
Rear_Leg04 Rear_Leg03
Rear_Foot Rear_Leg04
planeAlignerCenter Rear_Foot
Rear_Toe1_01 Rear_Foot
Rear_Toe2_01 Rear_Foot
Rear_Toe3_01 Rear_Foot
planeLockWeightCenter planeAlignerCenter
Rear_Toe1_02 Rear_Toe1_01
Rear_Toe1_03 Rear_Toe1_02
Rear_Toe2_02 Rear_Toe2_01
Rear_Toe2_03 Rear_Toe2_02
Rear_Toe3_02 Rear_Toe3_01
Rear_Toe3_03 Rear_Toe3_02
Back_Bone Spine1
Head Spine1
Motor_Bone Back_Bone
Ping_Mechanism Back_Bone
BN_LookIK Head
bottomMouth Head
L_Mouth01 Head
L_mouthFront Head
mouthGun Head
R_Mouth01 Head
R_mouthFront Head
TopMouth Head
weapon_bone Head
[BasePosition]
#SegmentName Tx, Ty, Tz, Rx, Ry, Rz, BoneLength
Pinger_Root 0.000000 0.000000 0.000000 -90.000000 0.000000 0.000000 10.000000 
Pelvis 0.000000 0.000000 0.000000 0.000000 0.000000 0.000000 10.000000 
L_Hip 0.000000 0.000000 0.000000 0.000000 0.000000 0.000000 10.000000 
R_Hip 0.000000 0.000000 0.000000 0.000000 0.000000 0.000000 10.000000 
Rear_Leg01 0.000000 0.000000 0.000000 0.000000 0.000000 0.000000 10.000000 
Spine1 0.000000 0.000000 0.000000 0.000000 0.000000 0.000000 10.000000 
L_Leg01 0.000000 0.000000 0.000000 0.000000 0.000000 0.000000 10.000000 
L_Leg02 0.000000 0.000000 0.000000 0.000000 0.000000 0.000000 10.000000 
L_Leg03 0.000000 0.000000 0.000000 0.000000 0.000000 0.000000 10.000000 
L_Foot 0.000000 0.000000 0.000000 0.000000 0.000000 0.000000 10.000000 
L_Toe1_01 0.000000 0.000000 0.000000 0.000000 0.000000 0.000000 10.000000 
L_Toe2_01 0.000000 0.000000 0.000000 0.000000 0.000000 0.000000 10.000000 
L_Toe3_01 0.000000 0.000000 0.000000 0.000000 0.000000 0.000000 10.000000 
planeAlignerLeft 0.000000 0.000000 0.000000 0.000000 0.000000 0.000000 10.000000 
L_Toe1_02 0.000000 0.000000 0.000000 0.000000 0.000000 0.000000 10.000000 
L_Toe1_03 0.000000 0.000000 0.000000 0.000000 0.000000 0.000000 10.000000 
L_Toe2_02 0.000000 0.000000 0.000000 0.000000 0.000000 0.000000 10.000000 
L_Toe2_03 0.000000 0.000000 0.000000 0.000000 0.000000 0.000000 10.000000 
L_Toe3_02 0.000000 0.000000 0.000000 0.000000 0.000000 0.000000 10.000000 
L_Toe3_03 0.000000 0.000000 0.000000 0.000000 0.000000 0.000000 10.000000 
planeLockWeightLeft 0.000000 0.000000 0.000000 0.000000 0.000000 0.000000 10.000000 
R_Leg01 0.000000 0.000000 0.000000 0.000000 0.000000 0.000000 10.000000 
R_Leg02 0.000000 0.000000 0.000000 0.000000 0.000000 0.000000 10.000000 
R_Leg03 0.000000 0.000000 0.000000 0.000000 0.000000 0.000000 10.000000 
R_Foot 0.000000 0.000000 0.000000 0.000000 0.000000 0.000000 10.000000 
planeAlignerRight 0.000000 0.000000 0.000000 0.000000 0.000000 0.000000 10.000000 
R_Toe1_01 0.000000 0.000000 0.000000 0.000000 0.000000 0.000000 10.000000 
R_Toe2_01 0.000000 0.000000 0.000000 0.000000 0.000000 0.000000 10.000000 
R_Toe3_01 0.000000 0.000000 0.000000 0.000000 0.000000 0.000000 10.000000 
planeLockWeightRight 0.000000 0.000000 0.000000 0.000000 0.000000 0.000000 10.000000 
R_Toe1_02 0.000000 0.000000 0.000000 0.000000 0.000000 0.000000 10.000000 
R_Toe1_03 0.000000 0.000000 0.000000 0.000000 0.000000 0.000000 10.000000 
R_Toe2_02 0.000000 0.000000 0.000000 0.000000 0.000000 0.000000 10.000000 
R_Toe2_03 0.000000 0.000000 0.000000 0.000000 0.000000 0.000000 10.000000 
R_Toe3_02 0.000000 0.000000 0.000000 0.000000 0.000000 0.000000 10.000000 
R_Toe3_03 0.000000 0.000000 0.000000 0.000000 0.000000 0.000000 10.000000 
Rear_Leg02 0.000000 0.000000 0.000000 0.000000 0.000000 0.000000 10.000000 
Rear_Leg03 0.000000 0.000000 0.000000 0.000000 0.000000 0.000000 10.000000 
Rear_Leg04 0.000000 0.000000 0.000000 0.000000 0.000000 0.000000 10.000000 
Rear_Foot 0.000000 0.000000 0.000000 0.000000 0.000000 0.000000 10.000000 
planeAlignerCenter 0.000000 0.000000 0.000000 0.000000 0.000000 0.000000 10.000000 
Rear_Toe1_01 0.000000 0.000000 0.000000 0.000000 0.000000 0.000000 10.000000 
Rear_Toe2_01 0.000000 0.000000 0.000000 0.000000 0.000000 0.000000 10.000000 
Rear_Toe3_01 0.000000 0.000000 0.000000 0.000000 0.000000 0.000000 10.000000 
planeLockWeightCenter 0.000000 0.000000 0.000000 0.000000 0.000000 0.000000 10.000000 
Rear_Toe1_02 0.000000 0.000000 0.000000 0.000000 0.000000 0.000000 10.000000 
Rear_Toe1_03 0.000000 0.000000 0.000000 0.000000 0.000000 0.000000 10.000000 
Rear_Toe2_02 0.000000 0.000000 0.000000 0.000000 0.000000 0.000000 10.000000 
Rear_Toe2_03 0.000000 0.000000 0.000000 0.000000 0.000000 0.000000 10.000000 
Rear_Toe3_02 0.000000 0.000000 0.000000 0.000000 0.000000 0.000000 10.000000 
Rear_Toe3_03 0.000000 0.000000 0.000000 0.000000 0.000000 0.000000 10.000000 
Back_Bone 0.000000 0.000000 0.000000 0.000000 0.000000 0.000000 10.000000 
Head 0.000000 0.000000 0.000000 0.000000 0.000000 0.000000 10.000000 
Motor_Bone 0.000000 0.000000 0.000000 0.000000 0.000000 0.000000 10.000000 
Ping_Mechanism 0.000000 0.000000 0.000000 0.000000 0.000000 0.000000 10.000000 
BN_LookIK 0.000000 0.000000 0.000000 0.000000 0.000000 0.000000 10.000000 
bottomMouth 0.000000 0.000000 0.000000 0.000000 0.000000 0.000000 10.000000 
L_Mouth01 0.000000 0.000000 0.000000 0.000000 0.000000 0.000000 10.000000 
L_mouthFront 0.000000 0.000000 0.000000 0.000000 0.000000 0.000000 10.000000 
mouthGun 0.000000 0.000000 0.000000 0.000000 0.000000 0.000000 10.000000 
R_Mouth01 0.000000 0.000000 0.000000 0.000000 0.000000 0.000000 10.000000 
R_mouthFront 0.000000 0.000000 0.000000 0.000000 0.000000 0.000000 10.000000 
TopMouth 0.000000 0.000000 0.000000 0.000000 0.000000 0.000000 10.000000 
weapon_bone 0.000000 0.000000 0.000000 0.000000 0.000000 0.000000 10.000000 
#Beginning of Data. Separated by tabs
#Fr	Tx	Ty	Tz	Rx	Ry	Rz	SF
[Pinger_Root]
28 0.000000 -3499.999023 0.000000 -0.000075 -0.000000 -0.000020 3499.999023
29 0.000000 -3629.628662 0.000000 -0.000075 -0.000000 -0.000020 3629.628662
30 0.000000 -3759.258789 0.000000 -0.000075 -0.000000 -0.000020 3759.258789
[Pelvis]
28 41.945606 11.039769 4984.926270 -113.199013 -67.425644 91.586517 4985.114746
29 104.100090 -7.971655 5013.014648 -111.315559 -68.028793 89.265739 5014.102051
30 165.690475 -17.015406 5043.616211 -109.317421 -68.601738 86.831161 5046.365723
[L_Hip]
28 5.766392 125.831482 872.656799 -178.250168 -81.786369 87.376007 881.701050
29 5.766392 125.831482 872.656799 -178.250168 -81.786369 87.376007 881.701050
30 5.766392 125.831482 872.656799 -178.250168 -81.786369 87.376007 881.701050
[R_Hip]
28 5.765438 125.836372 -872.654907 -1.748770 81.786041 87.376961 881.699829
29 5.765438 125.836372 -872.654907 -1.748770 81.786041 87.376961 881.699829
30 5.765438 125.836372 -872.654907 -1.748770 81.786041 87.376961 881.699829
[Rear_Leg01]
28 -192.298416 -925.602966 -0.001907 156.974289 -4.342743 159.901718 945.367432
29 -192.298416 -925.602966 -0.001907 156.580734 -5.759791 156.382599 945.367432
30 -192.298416 -925.602966 -0.001907 156.265732 -6.663702 154.456116 945.367432
[Spine1]
28 290.604584 5.007505 0.000477 20.664318 1.711223 -2.839114 290.647736
29 290.604584 5.007505 0.000477 20.675179 0.545357 -2.304750 290.647736
30 290.604584 5.007505 0.000477 20.675163 -0.620558 -1.770598 290.647736
[L_Leg01]
28 761.932007 -0.002384 -0.069261 4.297616 -42.554443 -4.577737 761.932068
29 761.932007 -0.002384 -0.069261 -1.709927 -42.007660 5.725003 761.932068
30 761.932007 -0.002384 -0.069261 -2.827125 -41.107162 7.929091 761.932068
[L_Leg02]
28 1441.140503 -0.000954 -0.000715 -0.969735 0.398444 -115.038773 1441.140503
29 1441.140503 -0.000954 -0.000715 0.498462 -0.107085 -129.209503 1441.140503
30 1441.140503 -0.000954 -0.000715 1.653786 -0.472961 -137.634537 1441.140503
[L_Leg03]
28 1686.963989 -0.000715 -0.000954 0.036517 -0.010401 100.554420 1686.963989
29 1686.963989 -0.000715 -0.000954 0.036508 -0.010432 100.650848 1686.963989
30 1686.963989 -0.000715 -0.000954 0.029363 -0.010299 102.679413 1686.963989
[L_Foot]
28 3041.570068 -30.715107 11.297464 -7.663651 10.281229 46.504284 3041.746094
29 3041.570068 -30.715107 11.297464 -6.892629 13.101375 62.567799 3041.746094
30 3041.570068 -30.715107 11.297464 -5.437452 14.787814 76.283783 3041.746094
[L_Toe1_01]
28 -188.216690 -224.732346 -21.137953 88.712448 -1.323067 -143.775528 293.899567
29 -188.216690 -224.732346 -21.137953 88.356819 -0.689616 -133.379013 293.899567
30 -188.216690 -224.732346 -21.137953 88.132721 -0.260933 -124.924377 293.899567
[L_Toe2_01]
28 200.746536 -219.926590 148.838394 -74.771240 -10.310542 -59.393002 332.896027
29 200.746536 -219.926590 148.838394 -74.854111 -10.230360 -59.089710 332.896027
30 200.746536 -219.926590 148.838394 -74.936523 -10.149740 -58.786598 332.896027
[L_Toe3_01]
28 188.832520 -219.859131 -191.078659 -109.637604 12.604102 -61.216637 347.140900
29 188.832520 -219.859131 -191.078659 -109.577248 12.553021 -61.042816 347.140900
30 188.832520 -219.859131 -191.078659 -109.441154 12.447675 -60.690945 347.140900
[planeAlignerLeft]
28 -60.354641 -810.720703 1.832875 0.000000 -90.000000 -90.001900 812.966187
29 -38.437038 -812.590515 3.618713 0.000000 -90.000000 -90.001900 813.507202
30 -16.519417 -814.460388 5.404551 0.000000 -90.000000 -90.001900 814.645813
[L_Toe1_02]
28 413.761139 0.000477 0.000000 0.001388 -25.490387 0.001388 413.761139
29 413.761139 0.000477 0.000000 0.001401 -23.799568 0.001401 413.761139
30 413.761139 0.000477 0.000000 0.001401 -23.749014 0.001401 413.761139
[L_Toe1_03]
28 464.317322 0.000358 -0.000089 0.005042 63.081379 0.005042 464.317322
29 464.317322 0.000358 -0.000089 0.008747 74.578674 0.008747 464.317322
30 464.317322 0.000358 -0.000089 0.008904 74.852486 0.008904 464.317322
[L_Toe2_02]
28 342.235809 -0.000477 0.000238 0.001185 -74.166359 0.001185 342.235809
29 342.235809 -0.000477 0.000238 0.001185 -74.022301 0.001185 342.235809
30 342.235809 -0.000477 0.000238 0.001186 -73.682083 0.001186 342.235809
[L_Toe2_03]
28 420.210846 -0.000715 0.000000 0.000000 89.494484 0.003502 420.210846
29 420.210846 -0.000715 0.000000 0.000000 89.674950 0.003494 420.210846
30 420.210846 -0.000715 0.000000 -0.058988 88.848862 -0.055491 420.210846
[L_Toe3_02]
28 329.270111 0.000954 0.000000 0.001180 -77.949615 0.001180 329.270111
29 329.270111 0.000954 0.000000 0.001180 -77.794640 0.001180 329.270111
30 329.270111 0.000954 0.000000 0.001180 -77.639648 0.001180 329.270111
[L_Toe3_03]
28 439.137451 -0.001907 0.000954 -179.981094 86.810219 -179.977600 439.137451
29 439.137451 -0.001907 0.000954 -179.974945 87.543221 -179.971451 439.137451
30 439.137451 -0.001907 0.000954 -179.963547 88.275688 -179.960052 439.137451
[planeLockWeightLeft]
28 500.002319 0.098190 0.076056 -0.011826 -0.004376 0.005620 500.002319
29 0.002861 0.098190 0.076065 -0.011826 -0.004376 0.005620 0.124239
30 0.000000 0.098198 0.076065 -0.011826 -0.004376 0.005620 0.124212
[R_Leg01]
28 761.455627 -0.001907 -0.000358 85.437958 -30.495388 84.070221 761.455688
29 761.455627 -0.001907 -0.000358 85.318581 -30.408794 84.290298 761.455688
30 761.455627 -0.001907 -0.000358 85.720596 -29.164959 84.306313 761.455688
[R_Leg02]
28 1441.140625 0.000000 -0.000238 0.194593 -0.007252 -94.328079 1441.140625
29 1441.140625 0.000000 -0.000238 0.202795 0.006200 -90.877754 1441.140625
30 1441.140625 0.000000 -0.000238 0.204728 0.014091 -89.077141 1441.140625
[R_Leg03]
28 1686.963989 0.000954 0.001431 -0.049400 0.013452 96.818741 1686.963989
29 1686.963989 0.000954 0.001431 -0.046070 0.009974 97.366417 1686.963989
30 1686.963989 0.000954 0.001431 -0.038926 0.010163 99.229866 1686.963989
[R_Foot]
28 3041.560059 -30.531288 -11.204481 13.239995 -19.116657 74.606445 3041.734131
29 3041.560059 -30.531288 -11.204481 12.136630 -18.453133 70.913651 3041.734131
30 3041.560059 -30.531288 -11.204481 11.162572 -17.640936 68.198021 3041.734131
[planeAlignerRight]
28 -3.821068 -640.890747 8.614585 0.000000 -89.960434 -90.005180 640.960022
29 -64.951424 -571.806030 29.582705 0.000000 -89.960434 -90.005180 576.242981
30 -57.307171 -571.984253 29.145203 0.000000 -89.960434 -90.005180 575.586243
[R_Toe1_01]
28 -188.383347 -224.864899 21.052242 90.678802 1.554378 -163.229263 294.101532
29 -188.383347 -224.864899 21.052242 90.737015 0.416365 -165.912369 294.101532
30 -188.383347 -224.864899 21.052242 90.732735 0.447163 -166.264496 294.101532
[R_Toe2_01]
28 200.637817 -220.002121 -148.787384 -102.338043 11.750867 -46.296871 332.857574
29 200.637817 -220.002121 -148.787384 -100.846741 12.946000 -39.521778 332.857574
30 200.637817 -220.002121 -148.787384 -100.863693 12.697175 -39.756569 332.857574
[R_Toe3_01]
28 188.606735 -220.092957 191.126343 -73.503258 -15.613801 -48.510559 347.192566
29 188.606735 -220.092957 191.126343 -74.571350 -20.023174 -42.863052 347.192566
30 188.606735 -220.092957 191.126343 -74.578300 -19.765259 -42.923649 347.192566
[planeLockWeightRight]
28 999.999390 -0.000894 0.076082 -0.011823 -0.004379 -0.000027 999.999390
29 999.999390 -0.000884 0.076079 -0.011823 -0.004379 -0.000027 999.999390
30 999.999451 -0.000873 0.076075 -0.011823 -0.004379 -0.000027 999.999451
[R_Toe1_02]
28 413.762085 0.000477 -0.000119 0.001411 -22.583714 0.001411 413.762085
29 413.762085 0.000477 -0.000119 0.001403 -23.602476 0.001403 413.762085
30 413.762085 0.000477 -0.000119 0.001406 -23.163263 0.001406 413.762085
[R_Toe1_03]
28 464.317810 0.000000 0.001088 0.002603 80.123466 0.004359 464.317810
29 464.317810 0.000000 0.001088 0.009357 75.589226 0.009357 464.317810
30 464.317810 0.000000 0.001088 0.010237 76.833656 0.010237 464.317810
[R_Toe2_02]
28 342.234741 -0.000954 0.000238 -0.002338 -76.955666 -0.002338 342.234741
29 342.234741 -0.000954 0.000238 -0.002332 -79.795288 -0.002332 342.234741
30 342.234741 -0.000954 0.000238 -0.002333 -79.528336 -0.002333 342.234741
[R_Toe2_03]
28 420.210846 0.000715 -0.000268 -179.991730 79.883667 -179.995239 420.210846
29 420.210846 0.000715 -0.000268 -179.995590 64.573097 -179.999191 420.210846
30 420.210846 0.000715 -0.000268 -179.995499 65.605598 -179.999069 420.210846
[R_Toe3_02]
28 329.270355 -0.000477 -0.000954 0.001178 -80.493248 0.001178 329.270355
29 329.270355 -0.000477 -0.000954 0.001176 -82.985130 0.001176 329.270355
30 329.270355 -0.000477 -0.000954 0.001176 -82.701843 0.001176 329.270355
[R_Toe3_03]
28 439.137939 0.000238 0.001431 -179.996033 78.471733 -179.992523 439.137939
29 439.137939 0.000238 0.001431 -179.998993 66.295433 -179.995422 439.137939
30 439.137939 0.000238 0.001431 -179.998871 67.207405 -179.995316 439.137939
[Rear_Leg02]
28 1162.777710 -0.029802 0.005960 -6.597808 9.926167 -127.573753 1162.777710
29 1162.777710 -0.029802 0.005960 -6.211855 9.887664 -129.144684 1162.777710
30 1162.777710 -0.029802 0.005960 -5.724113 9.776381 -128.522690 1162.777710
[Rear_Leg03]
28 607.192505 -0.013351 -0.073195 0.010317 -0.005451 72.055527 607.192505
29 607.192505 -0.013351 -0.073195 0.010329 -0.005429 71.806625 607.192505
30 607.192505 -0.013351 -0.073195 0.010355 -0.005380 71.265686 607.192505
[Rear_Leg04]
28 995.874512 -0.020504 -0.011921 -0.041457 -0.015825 75.576141 995.874573
29 995.874512 -0.020504 -0.011921 -0.041335 -0.016138 74.709373 995.874573
30 995.874512 -0.020504 -0.011921 -0.041156 -0.016621 73.379616 995.874573
[Rear_Foot]
28 3096.176270 -0.067472 -0.041425 67.049179 77.177338 -131.695023 3096.176270
29 3096.176270 -0.067472 -0.041425 70.763397 77.770432 -129.301239 3096.176270
30 3096.176270 -0.067472 -0.041425 74.776772 78.327148 -126.606750 3096.176270
[planeAlignerCenter]
28 1.037502 47.646751 -809.530701 0.000009 0.000003 -179.999985 810.932312
29 1.037451 52.645744 -795.805115 0.000009 0.000003 -179.999985 797.545227
30 1.037401 57.644726 -782.079468 0.000009 0.000003 -179.999985 784.201660
[Rear_Toe1_01]
28 0.653352 83.966492 -371.173737 0.065656 28.153137 90.031693 380.553192
29 0.653352 83.966492 -371.173737 0.062558 27.466204 90.030037 380.553192
30 0.653352 83.966492 -371.173737 0.059507 26.779280 90.028419 380.553192
[Rear_Toe2_01]
28 178.200760 -294.826019 -362.060547 0.685192 53.343258 -70.585732 499.765686
29 178.200760 -294.826019 -362.060547 0.765096 52.687378 -70.431633 499.765686
30 178.200760 -294.826019 -362.060547 0.840951 52.031364 -70.281265 499.765686
[Rear_Toe3_01]
28 -153.359680 -308.780914 -362.060852 -0.923367 53.327572 -111.823647 499.952881
29 -153.359680 -308.780914 -362.060852 -1.002576 52.673992 -111.991127 499.952881
30 -153.359680 -308.780914 -362.060852 -1.077520 52.020302 -112.154716 499.952881
[planeLockWeightCenter]
28 1000.000122 0.000025 0.076242 -0.011814 -0.004373 -0.000015 1000.000122
29 1000.000122 0.000041 0.076242 -0.011814 -0.004373 -0.000015 1000.000122
30 1000.000122 0.000058 0.076242 -0.011814 -0.004373 -0.000015 1000.000122
[Rear_Toe1_02]
28 379.707825 0.194073 0.000477 -0.000767 -33.624729 0.000838 379.707855
29 379.707825 0.194073 0.000477 -0.000767 -33.624729 0.000838 379.707855
30 379.707825 0.194073 0.000477 -0.000767 -33.624729 0.000838 379.707855
[Rear_Toe1_03]
28 500.129700 0.165701 0.000119 -0.004932 68.998199 -0.001375 500.129761
29 500.129700 0.165701 0.000119 -0.004925 68.950188 -0.001368 500.129761
30 500.129700 0.165701 0.000119 -0.002678 69.363129 0.000165 500.129761
[Rear_Toe2_02]
28 340.494507 0.000238 -0.000954 0.001179 -79.195251 0.001179 340.494507
29 340.494507 0.000238 -0.000954 0.001179 -80.112442 0.001179 340.494507
30 340.494507 0.000238 -0.000954 0.001178 -81.029594 0.001178 340.494507
[Rear_Toe2_03]
28 433.103577 0.000000 0.000238 0.033116 85.934898 0.033116 433.103546
29 433.103577 0.000000 0.000238 0.064593 87.915314 0.064593 433.103546
30 433.103577 0.000000 0.000238 0.000000 89.897209 0.000002 433.103546
[Rear_Toe3_02]
28 340.494141 -0.000358 -0.000477 0.001179 -79.109261 0.001179 340.494171
29 340.494141 -0.000358 -0.000477 0.001179 -80.025024 0.001179 340.494171
30 340.494141 -0.000358 -0.000477 0.001178 -80.940826 0.001178 340.494171
[Rear_Toe3_03]
28 433.103577 0.001431 -0.000238 -0.017246 85.745361 -0.013744 433.103546
29 433.103577 0.001431 -0.000238 -0.030618 87.715523 -0.027116 433.103546
30 433.103577 0.001431 -0.000238 0.000000 89.685341 0.003498 433.103546
[Back_Bone]
28 1312.175781 -701.934692 0.000954 2.671739 -1.890441 -84.238838 1488.125488
29 1312.175781 -701.934692 0.000954 2.767510 -1.075504 -84.529999 1488.125488
30 1312.175781 -701.934692 0.000954 2.859121 -0.260090 -84.819740 1488.125488
[Head]
28 1406.159424 809.709290 0.001431 1.233391 -3.277541 22.843304 1622.625488
29 1406.159424 809.709290 0.001431 1.553959 -3.229492 22.374567 1622.625488
30 1406.159424 809.709290 0.001431 1.874115 -3.178827 21.906120 1622.625488
[Motor_Bone]
28 1158.364380 -417.834747 0.000477 -1.960023 -0.663910 -106.649643 1231.419434
29 1158.364380 -417.834747 0.000477 -1.845118 -0.485018 -106.470413 1231.419434
30 1158.364380 -417.834747 0.000477 -1.729658 -0.306490 -106.290817 1231.419434
[Ping_Mechanism]
28 1325.606689 -458.747528 -5.666701 0.000103 -0.000053 82.120995 1402.752441
29 1322.227173 -458.548859 -0.377888 0.000103 -0.000053 82.120995 1399.482666
30 1318.847656 -458.350220 4.910911 0.000103 -0.000053 82.120995 1396.233521
[BN_LookIK]
28 193.241119 1380.371704 -0.002861 0.000000 89.965736 -31.038179 1393.832153
29 193.241119 1380.371704 -0.002861 0.000000 89.965736 -31.038179 1393.832153
30 193.241119 1380.371704 -0.002861 0.000000 89.965736 -31.038179 1393.832153
[bottomMouth]
28 -435.092926 615.759399 -0.000954 -0.000022 0.000016 73.527184 753.966492
29 -435.092926 615.759399 -0.000954 -0.000022 0.000016 73.527184 753.966492
30 -435.092926 615.759399 -0.000954 -0.000022 0.000016 73.527184 753.966492
[L_Mouth01]
28 554.440979 7.658243 838.222046 150.204178 23.759130 109.605339 1005.027161
29 554.440979 7.658243 838.222046 150.204178 23.759130 109.605339 1005.027161
30 554.440979 7.658243 838.222046 150.204178 23.759130 109.605339 1005.027161
[L_mouthFront]
28 551.629089 934.514771 339.150421 0.000081 2.804060 79.119301 1136.941284
29 551.629089 934.514771 339.150421 0.000081 2.804060 79.119301 1136.941284
30 551.629089 934.514771 339.150421 0.000081 2.804060 79.119301 1136.941284
[mouthGun]
28 55.332661 1627.420898 0.000000 0.000023 0.000009 -11.038128 1628.361328
29 55.332661 1627.420898 0.000000 0.000023 0.000009 -11.038128 1628.361328
30 55.332661 1627.420898 0.000000 0.000023 0.000009 -11.038128 1628.361328
[R_Mouth01]
28 554.442383 7.659197 -838.223938 29.795891 -23.759109 109.605331 1005.029541
29 554.442383 7.659197 -838.223938 29.795891 -23.759109 109.605331 1005.029541
30 554.442383 7.659197 -838.223938 29.795891 -23.759109 109.605331 1005.029541
[R_mouthFront]
28 551.629089 934.514282 -339.151367 0.000029 -2.803930 79.119133 1136.941162
29 551.629089 934.514282 -339.151367 0.000029 -2.803930 79.119133 1136.941162
30 551.629089 934.514282 -339.151367 0.000029 -2.803930 79.119133 1136.941162
[TopMouth]
28 461.269867 -56.106091 -0.008583 -0.000059 -0.000268 92.025169 464.669525
29 461.269867 -56.106091 -0.008583 -0.000059 -0.000268 92.025169 464.669525
30 461.269867 -56.106091 -0.008583 -0.000059 -0.000268 92.025169 464.669525
[weapon_bone]
28 -987.239868 1448.372803 0.001431 0.000000 89.965736 -31.038221 1752.833740
29 -987.239868 1448.372803 0.001431 0.000000 89.965736 -31.038221 1752.833740
30 -987.239868 1448.372803 0.001431 0.000000 89.965736 -31.038221 1752.833740
